<svg xmlns="http://www.w3.org/2000/svg" xmlns:xlink="http://www.w3.org/1999/xlink" width="1920" zoomAndPan="magnify" viewBox="0 0 1440 809.999993" height="1080" preserveAspectRatio="xMidYMid meet" version="1.0"><defs><g/><clipPath id="225afeefc0"><path d="M 81 255.480469 L 393.75 255.480469 L 393.75 586.230469 L 81 586.230469 Z M 81 255.480469 " clip-rule="nonzero"/></clipPath><clipPath id="8f975b57c5"><path d="M 126.640625 313.367188 L 347.941406 313.367188 L 347.941406 527.988281 L 126.640625 527.988281 Z M 126.640625 313.367188 " clip-rule="nonzero"/></clipPath></defs><rect x="-144" width="1728" fill="#ffffff" y="-80.999999" height="971.999992" fill-opacity="1"/><rect x="-144" width="1728" fill="#ffffff" y="-80.999999" height="971.999992" fill-opacity="1"/><rect x="-144" width="1728" fill="#ffffff" y="-80.999999" height="971.999992" fill-opacity="1"/><g clip-path="url(#225afeefc0)"><path stroke-linecap="butt" transform="matrix(0.750422, 0, 0, 0.750825, 81.000002, 255.481032)" fill="none" stroke-linejoin="miter" d="M -0.00000286135 -0.000750105 L 416.765682 -0.000750105 L 416.765682 440.514874 L -0.00000286135 440.514874 L -0.00000286135 -0.000750105 " stroke="#000000" stroke-width="30" stroke-opacity="1" stroke-miterlimit="4"/></g><g clip-path="url(#8f975b57c5)"><path fill="#000000" d="M 126.640625 313.367188 L 348.164062 313.367188 L 348.164062 527.96875 L 126.640625 527.96875 Z M 126.640625 313.367188 " fill-opacity="1" fill-rule="nonzero"/></g><g fill="#000000" fill-opacity="1"><g transform="translate(589.46887, 452.5519)"><g><path d="M 77.621094 -0.238281 C 70.566406 -5.621094 66.859375 -17.460938 63.03125 -26.671875 L 41.742188 -85.039062 L 28.464844 -85.039062 C 29.0625 -83.125 29.300781 -81.570312 29.300781 -79.773438 C 29.300781 -77.023438 28.585938 -74.035156 26.789062 -69.25 L 8.96875 -16.984375 C 6.101562 -9.210938 3.230469 -5.261719 -1.554688 -0.238281 L 19.496094 -0.238281 C 17.941406 -2.390625 17.222656 -4.425781 17.222656 -6.699219 C 17.222656 -9.449219 18.179688 -12.679688 19.496094 -16.984375 L 21.527344 -24.636719 L 47.480469 -24.636719 C 47.480469 -24.636719 50.59375 -18.058594 52.625 -10.523438 C 53.460938 -6.816406 52.503906 -3.46875 49.636719 -0.238281 Z M 24.28125 -32.652344 L 34.207031 -59.683594 L 44.613281 -32.53125 Z M 24.28125 -32.652344 "/></g></g></g><g fill="#000000" fill-opacity="1"><g transform="translate(665.535409, 452.5519)"><g><path d="M 38.992188 -61.835938 C 29.660156 -61.835938 22.367188 -54.179688 19.855469 -51.308594 L 19.855469 -62.074219 L 1.554688 -53.703125 C 5.742188 -50.234375 5.980469 -43.058594 5.980469 -43.058594 L 5.980469 -13.753906 C 5.980469 -12.199219 5.742188 -5.144531 1.554688 0 L 24.519531 0 C 20.09375 -7.054688 19.972656 -13.515625 19.972656 -14.113281 L 19.855469 -47.363281 C 22.722656 -48.558594 25.234375 -49.15625 27.269531 -49.15625 C 34.683594 -49.15625 37.554688 -42.816406 37.554688 -42.816406 L 49.277344 -57.410156 C 49.277344 -57.410156 46.765625 -61.835938 38.992188 -61.835938 Z M 38.992188 -61.835938 "/></g></g></g><g fill="#000000" fill-opacity="1"><g transform="translate(714.33282, 452.5519)"><g><path d="M 37.554688 -7.054688 C 25.476562 -7.054688 21.050781 -13.035156 18.300781 -23.324219 C 15.789062 -32.769531 13.394531 -40.902344 13.394531 -45.925781 C 13.394531 -49.636719 14.710938 -51.789062 17.941406 -51.789062 C 32.292969 -51.789062 34.925781 -37.792969 34.925781 -37.792969 L 46.644531 -52.503906 C 46.644531 -52.503906 41.023438 -61.117188 27.148438 -61.117188 C 11.121094 -61.117188 2.390625 -49.992188 2.390625 -29.902344 C 2.390625 -9.6875 11.121094 1.792969 26.910156 1.792969 C 33.128906 1.792969 41.980469 -0.71875 47.722656 -8.371094 C 44.371094 -7.535156 41.261719 -7.054688 37.554688 -7.054688 Z M 37.554688 -7.054688 "/></g></g></g><g fill="#000000" fill-opacity="1"><g transform="translate(762.651821, 452.5519)"><g><path d="M 38.035156 0.121094 L 59.683594 0.121094 C 55.613281 -7.773438 55.257812 -12.199219 55.257812 -13.632812 C 55.257812 -13.875 55.136719 -39.109375 55.136719 -45.089844 L 55.136719 -46.167969 C 55.136719 -52.027344 54.777344 -61.714844 41.382812 -61.714844 C 32.769531 -61.714844 22.125 -52.984375 19.496094 -50.59375 L 19.496094 -92.09375 C 19.496094 -92.09375 1.433594 -83.839844 1.433594 -83.722656 C 5.859375 -79.65625 5.859375 -73.078125 5.859375 -73.078125 L 5.859375 -13.992188 C 5.859375 -12.078125 5.742188 -5.261719 1.433594 0.121094 L 24.398438 0.121094 C 19.972656 -6.9375 19.855469 -13.394531 19.855469 -13.992188 C 19.855469 -24.878906 19.734375 -36.121094 19.734375 -47.242188 C 23.5625 -48.796875 26.789062 -49.515625 29.421875 -49.515625 C 42.339844 -49.515625 42.457031 -40.1875 42.457031 -39.945312 C 42.457031 -31.214844 42.457031 -22.605469 42.457031 -13.992188 C 42.457031 -13.515625 42.21875 -10.40625 38.035156 0.121094 Z M 38.035156 0.121094 "/></g></g></g><g fill="#000000" fill-opacity="1"><g transform="translate(823.88778, 452.5519)"><g><path d="M 12.320312 -66.378906 L 23.203125 -78.21875 C 23.203125 -78.21875 16.625 -81.570312 12.558594 -89.222656 L 1.316406 -78.339844 C 1.316406 -78.339844 4.902344 -70.566406 12.320312 -66.378906 Z M 24.636719 0.121094 C 20.210938 -6.9375 20.09375 -13.394531 20.09375 -13.992188 L 19.972656 -61.117188 L 1.554688 -52.746094 C 6.101562 -49.035156 6.101562 -42.101562 6.101562 -42.101562 L 6.101562 -13.632812 C 6.101562 -11.960938 5.859375 -5.023438 1.554688 0.121094 Z M 24.636719 0.121094 "/></g></g></g><g fill="#000000" fill-opacity="1"><g transform="translate(850.08049, 452.5519)"><g><path d="M 56.8125 -83.242188 C 59.800781 -77.859375 60.398438 -72.121094 58.726562 -66.019531 L 41.980469 -19.972656 C 37.675781 -30.617188 32.054688 -48.4375 27.507812 -60.039062 C 25.117188 -66.140625 23.679688 -71.28125 23.679688 -74.632812 C 23.5625 -77.742188 24.519531 -80.613281 26.550781 -83.242188 L -1.554688 -83.242188 C 7.054688 -76.785156 9.566406 -66.378906 13.035156 -56.8125 C 19.375 -39.945312 25.59375 -22.605469 31.933594 -5.980469 C 31.933594 -5.980469 33.847656 0.597656 43.773438 0.835938 C 43.773438 0.835938 65.304688 -60.398438 67.574219 -66.5 C 69.726562 -72.597656 73.195312 -78.339844 78.699219 -83.242188 Z M 56.8125 -83.242188 "/></g></g></g><g fill="#000000" fill-opacity="1"><g transform="translate(927.343052, 452.5519)"><g><path d="M 36.359375 -7.054688 C 29.78125 -7.054688 24.636719 -7.65625 20.09375 -17.34375 C 19.496094 -18.539062 19.613281 -19.257812 19.613281 -19.257812 L 46.40625 -52.386719 C 46.40625 -52.386719 41.144531 -61.117188 27.628906 -61.117188 C 10.046875 -61.117188 2.390625 -48.320312 2.390625 -30.617188 C 2.390625 -8.371094 12.320312 1.675781 27.507812 1.675781 C 40.902344 1.675781 46.40625 -7.054688 47.480469 -8.371094 C 43.894531 -7.65625 40.066406 -7.054688 36.359375 -7.054688 Z M 13.035156 -45.808594 C 13.277344 -50.472656 14.351562 -52.863281 18.539062 -52.625 C 28.585938 -52.027344 34.925781 -49.15625 28.824219 -39.828125 C 26.789062 -36.71875 18.179688 -23.800781 18.179688 -23.800781 C 18.179688 -23.921875 13.035156 -37.316406 13.035156 -45.808594 Z M 13.035156 -45.808594 "/></g></g></g><g fill="#000000" fill-opacity="1"><g transform="translate(975.42286, 452.5519)"><g><path d="M 38.992188 -61.835938 C 29.660156 -61.835938 22.367188 -54.179688 19.855469 -51.308594 L 19.855469 -62.074219 L 1.554688 -53.703125 C 5.742188 -50.234375 5.980469 -43.058594 5.980469 -43.058594 L 5.980469 -13.753906 C 5.980469 -12.199219 5.742188 -5.144531 1.554688 0 L 24.519531 0 C 20.09375 -7.054688 19.972656 -13.515625 19.972656 -14.113281 L 19.855469 -47.363281 C 22.722656 -48.558594 25.234375 -49.15625 27.269531 -49.15625 C 34.683594 -49.15625 37.554688 -42.816406 37.554688 -42.816406 L 49.277344 -57.410156 C 49.277344 -57.410156 46.765625 -61.835938 38.992188 -61.835938 Z M 38.992188 -61.835938 "/></g></g></g><g fill="#000000" fill-opacity="1"><g transform="translate(1024.220282, 452.5519)"><g><path d="M 30.738281 -34.925781 C 19.855469 -42.9375 12.078125 -47.960938 12.078125 -50.710938 C 12.078125 -52.027344 13.632812 -52.625 17.101562 -52.625 C 28.105469 -52.625 39.347656 -40.1875 39.347656 -40.1875 L 44.730469 -54.777344 C 44.730469 -54.777344 40.546875 -61.117188 24.757812 -61.117188 C 11.242188 -61.117188 4.066406 -52.148438 4.066406 -46.285156 C 4.066406 -40.425781 5.621094 -34.085938 21.886719 -22.367188 C 32.769531 -14.949219 39.945312 -10.882812 39.945312 -8.011719 C 38.511719 -6.578125 36.835938 -5.859375 35.164062 -5.859375 C 19.613281 -5.980469 12.199219 -19.496094 12.199219 -19.496094 L 0.957031 -8.011719 C 0.957031 -8.011719 7.175781 1.792969 23.679688 1.792969 C 47.242188 1.792969 49.15625 -10.285156 49.15625 -13.394531 C 49.15625 -21.527344 44.253906 -24.878906 30.738281 -34.925781 Z M 30.738281 -34.925781 "/></g></g></g><g fill="#000000" fill-opacity="1"><g transform="translate(1074.811725, 452.5519)"><g><path d="M 36.359375 -7.054688 C 29.78125 -7.054688 24.636719 -7.65625 20.09375 -17.34375 C 19.496094 -18.539062 19.613281 -19.257812 19.613281 -19.257812 L 46.40625 -52.386719 C 46.40625 -52.386719 41.144531 -61.117188 27.628906 -61.117188 C 10.046875 -61.117188 2.390625 -48.320312 2.390625 -30.617188 C 2.390625 -8.371094 12.320312 1.675781 27.507812 1.675781 C 40.902344 1.675781 46.40625 -7.054688 47.480469 -8.371094 C 43.894531 -7.65625 40.066406 -7.054688 36.359375 -7.054688 Z M 13.035156 -45.808594 C 13.277344 -50.472656 14.351562 -52.863281 18.539062 -52.625 C 28.585938 -52.027344 34.925781 -49.15625 28.824219 -39.828125 C 26.789062 -36.71875 18.179688 -23.800781 18.179688 -23.800781 C 18.179688 -23.921875 13.035156 -37.316406 13.035156 -45.808594 Z M 13.035156 -45.808594 "/></g></g></g><g fill="#ffffff" fill-opacity="1"><g transform="translate(187.428595, 440.127647)"><g><path d="M 50.492188 -0.15625 C 45.902344 -3.65625 43.492188 -11.359375 41.003906 -17.351562 L 27.152344 -55.316406 L 18.515625 -55.316406 C 18.90625 -54.074219 19.0625 -53.0625 19.0625 -51.894531 C 19.0625 -50.105469 18.59375 -48.160156 17.429688 -45.046875 L 5.835938 -11.046875 C 3.96875 -5.992188 2.101562 -3.421875 -1.011719 -0.15625 L 12.683594 -0.15625 C 11.671875 -1.554688 11.203125 -2.878906 11.203125 -4.355469 C 11.203125 -6.144531 11.824219 -8.246094 12.683594 -11.046875 L 14.003906 -16.027344 L 30.886719 -16.027344 C 30.886719 -16.027344 32.910156 -11.75 34.234375 -6.847656 C 34.777344 -4.433594 34.15625 -2.257812 32.289062 -0.15625 Z M 15.792969 -21.238281 L 22.25 -38.824219 L 29.019531 -21.164062 Z M 15.792969 -21.238281 "/></g></g></g><g fill="#ffffff" fill-opacity="1"><g transform="translate(236.911608, 440.127647)"><g><path d="M 36.957031 -54.152344 C 38.902344 -50.648438 39.289062 -46.914062 38.203125 -42.945312 L 27.308594 -12.992188 C 24.507812 -19.917969 20.851562 -31.511719 17.894531 -39.058594 C 16.339844 -43.023438 15.40625 -46.371094 15.40625 -48.550781 C 15.328125 -50.570312 15.949219 -52.4375 17.273438 -54.152344 L -1.011719 -54.152344 C 4.589844 -49.949219 6.222656 -43.179688 8.480469 -36.957031 C 12.605469 -25.984375 16.648438 -14.703125 20.773438 -3.890625 C 20.773438 -3.890625 22.019531 0.390625 28.476562 0.542969 C 28.476562 0.542969 42.480469 -39.289062 43.957031 -43.257812 C 45.359375 -47.226562 47.617188 -50.960938 51.195312 -54.152344 Z M 36.957031 -54.152344 "/></g></g></g></svg>